<svg xmlns="http://www.w3.org/2000/svg" width="150" height="150" viewBox="0 0 150 150"><path d="M73.44,82.79c-2.63-.7-5.25-1.23-7.75-2.09-8.76-3-15.63-12.56-16-21.77-.27-6.67,1.34-13,2.77-19.44.78-3.51.81-3.5,4.42-3.5,12.77,0,25.54,0,38.3,0,1.25,0,1.74.31,2,1.61.9,5.14,2.14,10.24,2.92,15.4A25.46,25.46,0,0,1,78.86,82.21c-.73.12-1.48.16-2.32.24v28.78H94.49V114h-39v-2.75h18ZM55.55,38.94c-.41,1.78-.84,3.49-1.21,5.2-1.19,5.54-2.37,11.07-1.47,16.8A22.51,22.51,0,0,0,74,79.62,22.76,22.76,0,0,0,96.68,63,26.62,26.62,0,0,0,97,51.88c-.72-4.34-1.64-8.65-2.47-12.94Z"/><path d="M56.18,58h37.6c-.27,6.65-2.93,12-8.49,15.53-6.58,4.23-13.49,4.33-20.18.28C59.29,70.26,56.48,64.83,56.18,58Z"/></svg>