<svg xmlns="http://www.w3.org/2000/svg" width="150" height="150" viewBox="0 0 150 150"><path d="M89.46,82.5c2.91.15,2.91.15,2.76,2.77a16.88,16.88,0,0,1-13,15.48c-2.65.65-2.65.65-2.65,3.48,0,2.51,0,5,0,7.52,0,1.09,0,2.26-1.48,2.28s-1.63-1.21-1.64-2.35c0-3.06-.08-6.12,0-9.17,0-1.33-.47-1.8-1.68-2.08-8-1.84-12.74-6.84-13.86-14.86-.42-3-.89-3,2.65-3.54-.22-.53-.46-1-.61-1.47a58.86,58.86,0,0,1-2-6.42c-.61-3.07-.48-3.1,2.62-3.59-.17-.47-.34-.89-.49-1.33A72.35,72.35,0,0,1,58,62.28c-.63-3-.47-3,2.74-3.36a11.09,11.09,0,0,1-.77-1.61c-.75-2.56-1.53-5.12-2.13-7.71-.31-1.3.29-2.22,1.82-1.91,2.43.51,4.85,1.08,7.27,1.68a13.5,13.5,0,0,1,1.91.86c.09-.9.2-1.59.22-2.28a16.93,16.93,0,0,1,5-11.32c.82-.89,1.41-.89,2.23,0a17.14,17.14,0,0,1,4.86,11.18c0,.85,0,1.7,0,2.88.74-.27,1.21-.49,1.69-.62,2.59-.69,5.17-1.39,7.76-2,1.26-.3,2,.32,1.71,1.58-.54,2.6-1.18,5.18-1.84,7.76a9.88,9.88,0,0,1-.82,1.74c.18.16.26.29.36.3,2.44.34,2.63.37,2.25,2.78A57.48,57.48,0,0,1,90.34,69a15.91,15.91,0,0,1-.79,1.82c2.86.74,3,.77,2.56,3.74a43.35,43.35,0,0,1-1.8,6.1A16.18,16.18,0,0,1,89.46,82.5ZM77,74.89C82.8,74.91,89.55,68,88.8,63,83.19,63,77,69.13,77,74.89ZM88.85,86.05c-5.82.1-12.36,6.76-11.76,11.87C82.84,98.21,89.34,91,88.85,86.05ZM73.28,97.32c-.57-6.07-6.63-12-12-11.73C60.83,91.55,68.62,98.06,73.28,97.32Zm3.65-34.11c5.25.7,12.7-6.8,11.84-11.79C83.14,51.29,76.91,57.87,76.93,63.21Zm11.84,11.3c-6.33,0-12.38,7.57-11.67,11.8C82.3,86.93,89.69,79.45,88.77,74.51ZM73.21,85.83C73,80,66.22,73.35,61.29,74.12,61,79.47,67.52,86,73.21,85.83Zm1.84-28.78c4.34-4,3.82-13.76-.1-16.56C71.76,43.36,70.42,52.34,75.05,57.05ZM61.16,62.39a9.67,9.67,0,0,0,.18,1.74,14,14,0,0,0,8.93,9.69,13.32,13.32,0,0,0,2.79.42,15,15,0,0,0-.36-2.78C71.26,67,66.35,62.59,61.16,62.39Zm0-11.51c.13,5.82,7.22,12.64,12,11.6C73.06,57.08,66.59,50.64,61.2,50.88Z"/></svg>