<svg xmlns="http://www.w3.org/2000/svg" width="150" height="150" viewBox="0 0 150 150"><defs><style>.a{stroke:#1d1d1b;stroke-miterlimit:10;stroke-width:2px;}</style></defs><path class="a" d="M109,73.28a38.08,38.08,0,0,0-13.44-6.81,50.33,50.33,0,0,0-14.79-2,3.78,3.78,0,0,0-2.22.84c-1.81,1.53-3.5,3.19-5.23,4.8-.49.45-1,1.07-1.69.38s-.15-1.21.38-1.71c2-1.85,4-3.74,6-5.56a2.58,2.58,0,0,1,1.51-.68c9.81-.07,19.16,1.68,27.58,7,4.8,3.06,4.85,3.1,4.85,8.68,0,2.19,0,4.38,0,6.56,0,.75.29,1.89-.86,1.9s-.93-1.19-.94-2c0-2.77,0-5.54,0-8.31V74.94L77.78,79.77c.06.49.09.92.16,1.33a8.51,8.51,0,0,1-6.82,9.68,2.68,2.68,0,0,0-2.38,1.81,9.54,9.54,0,0,1-7,5.67c-.4.09-1,.56-1,.86-.07,4-.05,8.11-.05,12.32l23.86-3.56a14.49,14.49,0,0,1,.5-8.21c2.85-8,13.15-14.17,20.93-12.5,7,1.49,10.37,7.11,8.08,13.88-2.55,7.57-8,12-15.85,13.49a20.15,20.15,0,0,1-6.47-.22,8.37,8.37,0,0,1-5.65-3.74,1.69,1.69,0,0,0-1.9-.78l-9.65,1.47c-4.68.69-9.35,1.35-14,2.08-1.25.2-1.65-.36-1.65-1.44q0-6.9,0-13.79c0-.92.33-1.42,1.41-1.52a7.77,7.77,0,0,0,7.34-6.16c.25-.85.65-1.29,1.59-1.24a6.78,6.78,0,0,0,6.45-9.55c-.47-1,.11-1.38,1-1.52l15.73-2.38Zm-13.42,40c7.56-.17,15.33-6.27,17-13.57,1.1-4.78-1.22-9.16-5.6-10.43a12.59,12.59,0,0,0-7.12-.11C93.13,91.1,88.25,95,86.33,101.94c-1.24,4.42.54,8.49,4.46,10.17A28.65,28.65,0,0,0,95.54,113.27Z"/><path class="a" d="M67.37,79.24a106,106,0,0,1-30.08,0V94.65c3.18.31,6.36.71,9.55.9,2.76.15,5.53.06,8.3.07.09,0,.21,0,.27,0l1.25.92c-.41.31-.81.87-1.22.88-3,0-6.08.07-9.11-.09s-6-.55-9.21-.85c0,.42-.06.89-.06,1.35,0,3.08.08,6.17,0,9.24A2.4,2.4,0,0,0,39,109.79a38.65,38.65,0,0,0,12.11,1.85c1.21,0,2.43-.07,3.62.06.42,0,.79.61,1.18.94-.37.29-.74.82-1.12.83-5.78.09-11.52-.22-17-2.32a3.34,3.34,0,0,1-2.51-3.65q0-17.15,0-34.29a25.32,25.32,0,0,1,3.24-11.9,49.08,49.08,0,0,0,5.53-16c.12-.82.53-1,1.26-1q6.82,0,13.67,0c1,0,1.35.3,1.5,1.35A44.18,44.18,0,0,0,65.56,60.8a27.28,27.28,0,0,1,3.6,13.8c-.06,3.25,0,6.51,0,9.77a2.47,2.47,0,0,1-.06,1.06,5.06,5.06,0,0,1-.9,1c-.27-.35-.75-.69-.78-1.06-.09-1.51,0-3,0-4.55Zm-8.66-33h-13a59.34,59.34,0,0,1-6.29,17.25A24.2,24.2,0,0,0,37.17,77.3a100.11,100.11,0,0,0,30.08,0A24.73,24.73,0,0,0,64.76,63,53.35,53.35,0,0,1,58.71,46.23Z"/><path class="a" d="M58.88,37.18H45.56c.14,1.35.28,2.65.4,4,.06.63.1,1.41-.78,1.35-.34,0-.82-.7-.91-1.15a29.3,29.3,0,0,1-.5-4,1.78,1.78,0,0,1,2-2.08q6.42,0,12.85,0c1.55,0,2.19.68,2.08,2.24-.09,1.25-.25,2.49-.42,3.72-.09.66-.22,1.52-1.14,1.22-.35-.11-.67-.93-.66-1.43C58.51,39.8,58.72,38.56,58.88,37.18Z"/><path class="a" d="M76,102.89a4.18,4.18,0,1,1-4.21-4.24A4.15,4.15,0,0,1,76,102.89Zm-1.82-.12a2.34,2.34,0,1,0-4.68.16,2.34,2.34,0,1,0,4.68-.16Z"/><path class="a" d="M79.68,98a3.46,3.46,0,0,1-3.42-3.1c0-.39.37-.79.57-1.19.38.28,1,.49,1.08.84.29.9.65,1.58,1.68,1.59s1.53-.66,1.76-1.65c.07-.32.56-.54.86-.81.28.34.76.65.82,1A3.12,3.12,0,0,1,79.68,98Z"/></svg>