<svg xmlns="http://www.w3.org/2000/svg" width="150" height="150" viewBox="0 0 150 150"><path d="M80.1,39.91c7.83,0,15.67-.24,23.49.07,6.51.26,12.53,2.17,16.79,7.63A13,13,0,0,1,123.45,56a106.38,106.38,0,0,1-.61,11.3c-1.1,8.21-6,13.7-13.51,16.58a59.13,59.13,0,0,1-12.24,2.9A18.93,18.93,0,0,0,85,93.69c-2.07,2.48-4,5.1-6.14,7.53C73.76,107,67.08,109.44,59.67,110c-5,.36-10,.39-14.92-1C35.5,106.24,30.23,99.85,28,90.79A53,53,0,0,1,27,71.5c.24-1.91.05-3.88.13-5.81.41-9.53,5.23-16.33,13.31-20.95A36.74,36.74,0,0,1,59,39.85H80.1ZM95.28,72.28c2.22-.13,4.73-.15,7.21-.45a29.09,29.09,0,0,0,11.17-3.26,12.83,12.83,0,0,0,1.39-21.42,20.66,20.66,0,0,0-12.58-3.8c-14-.11-28-.1-42-.12a39,39,0,0,0-12.63,1.88c-8.29,2.81-14.7,7.7-16.74,16.61a35.67,35.67,0,0,0,1.59,20.37,19.19,19.19,0,0,0,14.17,12.8,35.44,35.44,0,0,0,12.37.59c5-.55,9.19-2.45,12.34-6.36,1.92-2.37,3.67-4.88,5.39-7.41C81.29,75.34,87.07,71.75,95.28,72.28ZM30.94,86.72A5.74,5.74,0,0,0,30.86,88c.21,1,.43,2,.71,3,2.26,8.07,7.37,13.19,15.63,15a39.87,39.87,0,0,0,13.48.44c5.68-.7,10.85-2.5,14.84-6.75,2.37-2.54,4.49-5.32,6.68-8a22.09,22.09,0,0,1,15.87-8.41,30,30,0,0,0,12.41-3.57c4.2-2.39,7.21-5.7,8.41-10.41a72.91,72.91,0,0,1-6.67,3.7c-5.8,2.45-12,2.64-18.18,2.67-4.94,0-9.24,1.71-12.36,5.69-2.08,2.64-4,5.41-5.94,8.14-3.83,5.34-8.9,8.71-15.48,9.4a48.4,48.4,0,0,1-9.7.14c-7.07-.69-13.2-3.42-17.57-9.32C32.36,88.8,31.77,87.91,30.94,86.72Z"/><path d="M81.09,46.82c7.46,0,14.93-.2,22.38.1a24.18,24.18,0,0,1,8.2,2.22,8.08,8.08,0,0,1,5.1,7.83,9.4,9.4,0,0,1-5,8.76c-4.52,2.57-9.54,2.82-14.56,3.13a67,67,0,0,0-9.1.75C81.2,71,76.8,75.79,73.06,81.34,72,82.91,70.93,84.48,69.78,86a14.49,14.49,0,0,1-11.12,6.2,35.67,35.67,0,0,1-10.92-.52,16.4,16.4,0,0,1-12-10.82A33.8,33.8,0,0,1,34,64.22c1.14-8.14,6.59-12.76,14-15.49a35.1,35.1,0,0,1,12.39-2.11H81.09ZM79,50.22v-.17c-6.36,0-12.73-.14-19.09.06a37.56,37.56,0,0,0-9.2,1.31c-6.36,1.84-11.58,5.35-13.06,12.28A28.7,28.7,0,0,0,39.4,80.6c1.61,4,4.66,6.86,8.83,7.58a58,58,0,0,0,11.65.3,8.47,8.47,0,0,0,6.46-3.74c1.22-1.6,2.44-3.21,3.53-4.9C74.34,72.93,79.94,67.43,88.36,66c3.76-.66,7.67-.5,11.5-.72,3.63-.21,7.17-.73,10.38-2.61,3.85-2.27,4.41-8.47-.07-10.48a17.58,17.58,0,0,0-6.43-1.84C95.48,50.09,87.22,50.22,79,50.22Z"/><path d="M54.55,57.92a13.14,13.14,0,0,1,8.57,3.55,7.84,7.84,0,0,1-.19,11.69,12.5,12.5,0,0,1-16.55-.06c-4.45-4.2-3.13-11,2.78-13.64A35.52,35.52,0,0,1,54.55,57.92Zm.33,15.22a26.58,26.58,0,0,0,5-2,4.54,4.54,0,0,0,.65-7.47,9.19,9.19,0,0,0-11.62,0,4.5,4.5,0,0,0-.18,6.9C50.39,72.22,52.48,72.73,54.88,73.14Z"/></svg>