<svg xmlns="http://www.w3.org/2000/svg" width="150" height="150" viewBox="0 0 150 150"><defs><style>.a{stroke:#1d1d1b;stroke-miterlimit:10;stroke-width:2px;}</style></defs><path class="a" d="M74.67,88.18c-.11-1.77-.23-3.35-.3-4.93-.25-5.67-.51-11.33-.72-17A6.21,6.21,0,0,1,77.77,60c3.08-1.27,6.19-2.47,9.28-3.71,1.57-.63,1.86-3.59.68-4.84a5.61,5.61,0,0,1-1.35-2.8,34.64,34.64,0,0,1-.07-4.33,3.45,3.45,0,0,1,1.45-3.16,2.61,2.61,0,0,0,.6-1.86c0-4.63-.1-4,4.09-4,2,0,3.9,0,5.84,0,1.27,0,1.87.5,1.83,1.77,0,.67,0,1.33,0,2a2.62,2.62,0,0,0,1.12,2.66c1.43,1,1.32,8.27,0,9.46-.38.36-1,.7-1.08,1.11a11.15,11.15,0,0,0,0,3.16c0,.32.7.63,1.13.8,3,1.21,6,2.36,9,3.58,3.27,1.33,4.66,3.46,4.47,7q-1.1,19.8-2.24,39.6c-.17,2.91-1.66,4.28-4.63,4.28-9.74,0-19.47,0-29.33,0a18,18,0,0,1-.82,1.84,4.1,4.1,0,0,1-3.71,2.16c-10.68,0-21.36,0-32,0a4,4,0,0,1-4.23-3.51c-.92-5-1.83-9.93-2.53-14.93-.46-3.29,1.17-5.81,4.24-7.18,1.52-.68,3.12-1.2,4.62-1.92a12.08,12.08,0,0,0,7.46-11.45c0-2.28,0-4.56,0-6.84a2,2,0,0,0-.91-1.9,4.31,4.31,0,0,1-1.38-2.62,37.45,37.45,0,0,1-.07-4.5c0-1.63.13-3.09,1.88-3.91.32-.15.44-.94.45-1.44.12-4.86.11-4.86,4.92-4.86,2.06,0,4.12,0,6.18,0,1.31,0,1.82.53,1.75,1.8,0,.83,0,1.67,0,2.5-.05,1.1,0,2,1.25,2.56a2.83,2.83,0,0,1,1,2.08,33.4,33.4,0,0,1,0,6c-.1.9-.93,1.73-1.45,2.58-.24.37-.78.71-.78,1a66.72,66.72,0,0,0,.3,9.81C65.59,83.46,69.25,86.54,74.67,88.18ZM76.17,72c.22,5.51.4,10.83.66,16.16a2.18,2.18,0,0,0,.83,1.46c2.91,2,3.59,4.76,3,8.06-.57,3.11-1,6.24-1.61,9.35-.21,1.13.1,1.52,1.23,1.52q14,0,28,0a1.84,1.84,0,0,0,2-1.92c.25-3.93.45-7.87.68-11.81.3-5.28.63-10.54.88-15.82.1-2.3,0-4.61,0-7ZM37.85,98.7c.76,4.28,1.42,8.43,2.3,12.52.12.56,1.35,1.23,2.06,1.24,10.57.08,21.14.05,31.71.06a2.22,2.22,0,0,0,2.3-2c.15-.59.19-1.21.29-1.81.54-3.32,1.09-6.63,1.65-10Zm38.31-29h36.13c.07-.79.12-1.49.19-2.2.35-3.38-.37-4.59-3.55-5.85s-6.15-2.53-9.28-3.67a2.21,2.21,0,0,1-1.76-2.56c.1-1.13,0-2.29,0-3.43h-7.2c0,1.12-.07,2.11,0,3.1a2.56,2.56,0,0,1-2,3c-3.34,1.19-6.6,2.6-9.91,3.9a4.12,4.12,0,0,0-2.92,4C75.86,67.16,76.05,68.37,76.16,69.69Zm2.3,26.61c.37-2.45-.41-4.08-2.44-5-1.41-.67-2.87-1.19-4.31-1.78A14.61,14.61,0,0,1,64.1,82.8a1.91,1.91,0,0,0-2-1.14c-2.73,0-5.45,0-8.18,0a2,2,0,0,0-2.05,1.28,14.13,14.13,0,0,1-7.07,6.33,34,34,0,0,0-4.29,1.8,7,7,0,0,0-2.75,2.68c-.89,1.86-.83,2.7,1.69,2.68,12.41-.07,24.81,0,37.21,0C77.29,96.38,77.89,96.33,78.46,96.3ZM62.37,67.49c-2.55,0-4.81.05-7.07,0-1.18,0-1.53.4-1.51,1.54.05,3.42,0,6.84,0,10.35h8.57Zm2.22-9.34c-4.22,0-8.16,0-12.11,0a1.41,1.41,0,0,0-1,1,39.73,39.73,0,0,0,0,5,1.42,1.42,0,0,0,1,.94q5.51.11,11,0a1.37,1.37,0,0,0,1-.9C64.64,62.28,64.59,60.34,64.59,58.15Zm35.4-15c-3.69,0-7.18,0-10.66.05-.3,0-.8.7-.83,1.1-.11,1.33,0,2.67,0,4,0,1,.36,1.4,1.37,1.39,2.94,0,5.89,0,8.84,0,.86,0,1.37-.24,1.34-1.23C100,46.84,100,45.17,100,43.19ZM53.82,55.68h8.33V51.81c-2.53,0-5,0-7.38,0a1.28,1.28,0,0,0-.91.84A24.63,24.63,0,0,0,53.82,55.68ZM90.8,41c2.17,0,4.16,0,6.14,0a1.31,1.31,0,0,0,.91-.86,14.15,14.15,0,0,0,.05-2.44H90.8Z"/></svg>