<svg xmlns="http://www.w3.org/2000/svg" width="150" height="150" viewBox="0 0 150 150"><path d="M105.21,88.42A13.45,13.45,0,0,1,91.66,75a13.52,13.52,0,0,1,27,.09A13.45,13.45,0,0,1,105.21,88.42Zm8-13.46a8,8,0,1,0-8,8.09A8,8,0,0,0,113.17,75Z"/><path d="M44.79,61.58A13.47,13.47,0,0,1,58.36,75a13.53,13.53,0,0,1-27.06-.08A13.45,13.45,0,0,1,44.79,61.58Zm8,13.36a8,8,0,1,0-7.94,8.11A8.05,8.05,0,0,0,52.83,74.94Z"/><path d="M75,61.58c7.19-.29,13.63,6.23,13.47,13.47a13.49,13.49,0,0,1-27-.17C61.42,67.71,67.84,61.29,75,61.58ZM66.94,74.92a8.07,8.07,0,1,0,8.11-8A8.19,8.19,0,0,0,66.94,74.92Z"/></svg>