<svg xmlns="http://www.w3.org/2000/svg" width="150" height="150" viewBox="0 0 150 150"><path d="M89.32,89.26l1.13-3.49a60.29,60.29,0,0,0,7.5,0c7.73-1,12.53-7.16,11.73-14.84-.56-5.34-5.21-10-10.7-10.93a16,16,0,0,1-4.52-1.29c-3.16-1.57-4.5-4.45-5-7.81A12.82,12.82,0,0,0,78.7,39.77a13,13,0,0,0-14.14,8.55c-1.66,4.65-1.14,9.26.4,14,1.14-.43,2.19-.89,3.27-1.23C77.84,58,87.76,64,89.73,74.35a24.83,24.83,0,0,1-2.64,16.54c-5.32,10-13,17.58-23.86,21.51-6.5,2.36-13,2.41-19.07-1.5a16.52,16.52,0,0,1,6.38-30.26c4.44-.71,5.83-2.17,6.43-6.57a15,15,0,0,1,4.16-8.53,1.68,1.68,0,0,0,.47-2C59.72,58.11,59,52.6,61.12,47.1,63.76,40.35,68.73,36.42,76,36A16.3,16.3,0,0,1,93.1,50.09c.49,4,2.25,5.79,6.24,6.25,8.54,1,15.12,9.62,14.07,18.1s-7.48,14.44-16.6,15.14A63.09,63.09,0,0,1,89.32,89.26ZM54.87,110.53A48.66,48.66,0,0,0,61.93,109c10.17-3.74,17.36-10.85,22.16-20.43a20.89,20.89,0,0,0,1.69-15,12.92,12.92,0,0,0-20.09-7.31c-3.35,2.37-4.88,5.75-5.38,9.72A8.88,8.88,0,0,1,57,82a12.44,12.44,0,0,1-6.2,2.32,12.86,12.86,0,0,0-9.41,18C44.11,107.92,48.85,110.13,54.87,110.53Z"/><path d="M84.92,49c.27.27,1,.69,1.26,1.3a27.88,27.88,0,0,1,1.25,4.42A8.77,8.77,0,0,0,94.7,62,42.62,42.62,0,0,1,99,63.18c1.31.44,1.82,1.43,1.38,2.46S99,67,97.82,66.65c-1.47-.4-3-.78-4.45-1.12a12.74,12.74,0,0,1-9.5-9.76c-.28-1.41-.68-2.8-1.06-4.19S83.08,49,84.92,49Z"/><path d="M67.55,74.78c-1.47,3.58-1.29,7.33-3.62,10.25a12.76,12.76,0,0,1-6.41,4.52c-1.87.55-3.76,1-5.66,1.47a1.71,1.71,0,0,1-2.23-1.17,1.65,1.65,0,0,1,1.07-2.26,38.53,38.53,0,0,1,4.56-1.26A9,9,0,0,0,62.59,79,23.11,23.11,0,0,1,64,74.37a2.36,2.36,0,0,1,2-1C66.52,73.41,67,74.29,67.55,74.78Z"/></svg>