<svg xmlns="http://www.w3.org/2000/svg" width="150" height="150" viewBox="0 0 150 150"><path d="M90.75,100c-1,1.6-1.93,3.18-3,4.62a19.2,19.2,0,0,1-10.87,7.13c-13.22,3.5-26.34,2.77-39.39-.65-5.34-1.4-10.21-3.94-13.58-8.48-5.78-7.77-5.89-16.3-2.56-25,2.55-6.67,7.06-12,12.48-16.56a5.37,5.37,0,0,0,1.54-1.8C40.2,47.6,49.14,40.84,61.18,38.08c12.25-2.81,24.57-3.22,36.53,1.25,14.26,5.33,24.9,14.8,31,28.91a25.3,25.3,0,0,1-1.24,23c-3,5.51-8.32,7.88-14.21,9C105.76,101.69,98.29,100.88,90.75,100Zm1.38-3.6c7,.79,13.82,1.51,20.65.13,5.15-1,9.66-3.21,12-8.24,2.29-4.87,3.14-10.09,1.46-15.25-5.19-16-16.47-25.92-32.16-31.06-8.71-2.85-17.74-2.54-26.72-1.33A39.53,39.53,0,0,0,49,47.55a27.36,27.36,0,0,0-7.49,8.06c.76-.33,1.09-.45,1.39-.61a46.65,46.65,0,0,1,18.84-5.66,7.33,7.33,0,0,0,5.89-2.92,16.9,16.9,0,0,1,2.11-2.12c.88-.83,1.89-1.09,2.8-.14s.64,1.92-.21,2.81-1.57,1.65-2.45,2.58C85.14,53.27,98,75.18,92.13,96.39ZM89.85,85.74a38.83,38.83,0,0,0-4.3-17.8C82.87,62.68,79.27,58.19,74,55.23c-3.81-2.17-7.83-3.09-12.2-1.79-5.9,1.76-9.22,6.06-11,11.53-3.75,11.46-1.54,22.17,4.85,32.15a25.14,25.14,0,0,0,10.89,9.67c7.22,3.23,14.27,1.32,18.78-5.17C88.68,96.84,89.81,91.43,89.85,85.74ZM51.55,55.61l-.33-.4c-2.88,1.45-5.87,2.72-8.63,4.38-7.94,4.77-14.48,11-17.86,19.75-4.14,10.8-1.57,23.23,12.57,27.83,8.52,2.77,17.25,3.15,26.08,2.92.07,0,.14-.15.35-.37-6.45-3.46-10.77-8.91-14.12-15.17-1.53.5-3.12,1.8-4.07-.22-1.08-2.28,1.37-2.44,2.5-3.4C43.81,78.62,43.65,66.72,51.55,55.61Z"/><path d="M115.75,88.41a3.69,3.69,0,0,1-.86,1.19c-1.72,1.24-3.5,2.39-5.28,3.54a1.73,1.73,0,0,1-2.63-.37,1.82,1.82,0,0,1,.63-2.74c1.75-1.2,3.49-2.42,5.3-3.51C114.38,85.63,115.81,86.46,115.75,88.41Z"/><path d="M108.37,54.28c0,1.57-1.05,2.59-2.2,2.15a20.66,20.66,0,0,1-4.45-2.31,2.2,2.2,0,0,1-.4-2.1,2.2,2.2,0,0,1,1.93-.92,24,24,0,0,1,4.36,2.1C108,53.44,108.22,54.06,108.37,54.28Z"/><path d="M118,64a56.3,56.3,0,0,1-2.82,5,1.73,1.73,0,0,1-2.83-1.59,22.3,22.3,0,0,1,2.26-4.63,2.18,2.18,0,0,1,2-.44C117.1,62.48,117.44,63.29,118,64Z"/><path d="M119.47,80.86c-.58-.54-1.35-.94-1.5-1.49a2.2,2.2,0,0,1,.48-2,17.36,17.36,0,0,1,4.28-2.15,2.31,2.31,0,0,1,2.09.84,2.57,2.57,0,0,1-.7,2.33A34.61,34.61,0,0,1,119.47,80.86Z"/><path d="M108.77,77c-.65.66-1.08,1.47-1.63,1.56a2.42,2.42,0,0,1-2.06-.67,14.81,14.81,0,0,1-2-4,2.29,2.29,0,0,1,.59-2.07c.47-.35,1.85-.34,2.11,0A56.82,56.82,0,0,1,108.77,77Z"/><path d="M86.09,47.31a1.73,1.73,0,0,1-2.65,1.49,9.82,9.82,0,0,1-2.58-2.6,1.77,1.77,0,0,1,1.55-2.64C83.6,43.54,86.12,46.12,86.09,47.31Z"/><path d="M93.06,50.6c1.75.29,2.85,1.82,2.12,2.92a10.35,10.35,0,0,1-2.72,2.72c-1.11.75-3-.47-2.51-1.57C90.64,53.16,92,51.94,93.06,50.6Z"/><path d="M102.87,86.17a1.81,1.81,0,0,1-2.68,1.54,10.32,10.32,0,0,1-2.6-2.59,1.79,1.79,0,0,1,1.51-2.68C100.24,82.4,102.88,85,102.87,86.17Z"/><path d="M95.44,63.14c0-1.57.16-2.87,1.85-2.84s1.89,1.41,1.9,2.79-.33,2.65-1.9,2.63S95.32,64.33,95.44,63.14Z"/><path d="M65.74,63.5A30,30,0,0,1,70,65.83c4,3.15,6.29,7.48,7.55,12.32a2.69,2.69,0,0,1-1.25,2.23c-1,.52-1.81-.23-2.28-1.29A60.8,60.8,0,0,0,70.6,71.9a9,9,0,0,0-5.32-4.42A2.6,2.6,0,0,1,64,65.39C64,64.82,65,64.26,65.74,63.5Z"/><path d="M72.83,97.9c-2.15-1.51-4.2-2.6-5.79-4.16a23.37,23.37,0,0,1-5.68-10.16c-.35-1.15-.41-2.31,1-2.79s2,.5,2.62,1.67a73.1,73.1,0,0,0,4.59,8.44c.82,1.2,2.5,1.91,3.89,2.63,1,.52,1.82,1.12,1.4,2.23C74.59,96.48,73.74,97,72.83,97.9Z"/><path d="M47.46,102.86c-.63.67-1,1.43-1.6,1.59a2.15,2.15,0,0,1-1.93-.49,22,22,0,0,1-2.19-4.49,2.08,2.08,0,0,1,.77-1.83,2.05,2.05,0,0,1,2,.11C45.56,99.29,46.41,101,47.46,102.86Z"/><path d="M41.54,69.54c0,.49,0,1,0,1.49,0,1.23-.57,2.1-1.85,2.09s-1.81-.93-1.85-2.12,0-2.11,0-3.16c.07-1.2.63-2,1.95-2s1.69.9,1.73,2c0,.55,0,1.11,0,1.67Z"/><path d="M37.83,78.74c1.23,0,3.74,2.61,3.67,3.82A1.73,1.73,0,0,1,38.92,84a9.9,9.9,0,0,1-2.65-2.59A1.82,1.82,0,0,1,37.83,78.74Z"/><path d="M31.32,89.83c-1.46.06-2.71-.2-2.67-1.9S30,86.11,31.36,86.1s2.69.21,2.7,1.86C34.07,89.76,32.66,89.91,31.32,89.83Z"/><path d="M38.3,98.19a12.18,12.18,0,0,1-1.61,2.49c-.28.27-1.22.16-1.69-.1-1.24-.7-1.24-4.09,0-4.79.47-.26,1.42-.38,1.69-.11A11.83,11.83,0,0,1,38.3,98.19Z"/></svg>