<svg xmlns="http://www.w3.org/2000/svg" width="150" height="150" viewBox="0 0 150 150"><defs><style>.a{stroke:#1d1d1b;stroke-miterlimit:10;}</style></defs><path class="a" d="M39,72.6c6.76.88,13.42,1.73,20.07,2.65a4.5,4.5,0,0,1,2,1c4.6,3.64,9.14,7.35,13.77,11a2.6,2.6,0,0,1,.93,3.5q-4.19,10.51-8.19,21.11c-.65,1.71-1.6,2.4-3.46,2.11C57.53,112.9,51,112,44.42,111a5.49,5.49,0,0,1-2.51-1c-4.24-3.41-8.37-6.94-12.62-10.34a3.1,3.1,0,0,1-1.1-4.16c2.76-6.85,5.39-13.75,8.06-20.63C36.76,73.54,37.22,72.21,39,72.6ZM72.56,90.35c-5.72-.8-11-1.45-16.28-2.33-1.94-.32-2.7.41-3.32,2.08-2,5.42-4.12,10.78-6.18,16.17a20.38,20.38,0,0,0-.5,2c5.92.85,11.62,1.69,17.34,2.42a1.89,1.89,0,0,0,1.42-1C67.54,103.4,70,97.07,72.56,90.35ZM43.2,107c1.85-4.84,3.55-9.25,5.21-13.69.82-2.2,2.56-4.71,2.06-6.59s-3.23-3.23-5-4.75c-2.09-1.76-4.23-3.45-6.55-5.32-2.57,6.59-5,12.71-7.31,18.88a2.46,2.46,0,0,0,.36,2.2C35.51,100.83,39.21,103.78,43.2,107Zm24.85-20.4.29-.71c-3.24-2.53-6.15-6-9.83-7.35C54.16,76.93,49.14,77,44.4,76.38a50.58,50.58,0,0,0,6.92,6.41c.91.73,1.87,1.71,2.93,1.9C58.83,85.47,63.44,86,68.05,86.63Z"/><path class="a" d="M122.09,97.75c.39,1.72-.45,2.71-2.18,3.3-5.77,2-11.52,4.07-17.3,6a4.86,4.86,0,0,1-2.48.15c-4.89-1.07-9.75-2.29-14.65-3.34a2.93,2.93,0,0,1-2.64-3.12c-.44-7-1-13.89-1.55-20.83a2.58,2.58,0,0,1,1.93-3.08c5.44-1.93,10.84-4,16.29-5.87a6.32,6.32,0,0,1,3.22-.28c5.24,1,10.48,2.17,15.66,3.48a3.4,3.4,0,0,1,2,2.32C121.08,83.55,121.55,90.59,122.09,97.75Zm-19.26,6.15c3.93-1.4,7.67-2.7,11.39-4.05,4.55-1.64,4.61-1.66,4.34-6.51-.29-5-.7-10.06-1.09-15.48-5.33,1.89-10.27,3.6-15.17,5.42a1.91,1.91,0,0,0-.82,1.55C101.87,91.08,102.35,97.32,102.83,103.9ZM84.6,80.7c.46,6.65.87,12.9,1.34,19.14,0,.43.4,1.11.73,1.19,4.23,1,8.48,1.94,13.06,3-.51-6.63-1-12.79-1.5-18.94A2.16,2.16,0,0,0,97,83.5C93,82.52,89.05,81.69,84.6,80.7Zm27.76-4.3c-8.32-4.13-15.71-2.05-23.19,2,1.1.31,2,.6,2.82.77,2.65.54,5.46,1.82,7.93,1.36C104.09,79.8,108.06,77.91,112.36,76.4Z"/><path class="a" d="M91.67,43.88c-.9,7.38-1.69,13.86-2.47,20.35a2.48,2.48,0,0,1-2.33,2.5c-5.54.85-11.05,1.86-16.58,2.74a4.26,4.26,0,0,1-2.2-.41c-4.2-1.82-8.42-3.62-12.52-5.64a3.43,3.43,0,0,1-1.63-2.64c.63-6.42,1.56-12.8,2.23-19.21.21-2,1.16-2.78,3-3.07,4.86-.77,9.7-1.68,14.57-2.41a6.36,6.36,0,0,1,3.21.32c4.32,1.74,8.62,3.56,12.85,5.53C90.71,42.37,91.31,43.49,91.67,43.88Zm-3.34,1.64c-4.84.77-9.27,1.41-13.66,2.26-.59.12-1.23,1.27-1.37,2-.46,2.5-.71,5-1,7.57-.33,2.82-.64,5.63-1,8.75,4.87-.78,9.31-1.44,13.72-2.23a2,2,0,0,0,1.26-1.3C87,57.07,87.63,51.52,88.33,45.52ZM67.68,65.58c.2-.19.3-.25.31-.32.79-5.62,1.58-11.24,2.31-16.87a1.48,1.48,0,0,0-.66-1.2c-3.35-1.53-6.73-3-10.46-4.61-.71,6.08-1.4,11.71-2,17.35a2,2,0,0,0,1,1.48C61.38,62.87,64.57,64.22,67.68,65.58ZM64.37,41c6.08,5.32,12.72,3.49,19.25,2C77.65,38,71,39.1,64.37,41Z"/></svg>